<mxfile host="app.diagrams.net" modified="2022-09-17T21:23:11.054Z" agent="5.0 (Windows NT 10.0; Win64; x64) AppleWebKit/537.36 (KHTML, like Gecko) Chrome/105.0.0.0 Safari/537.36" etag="I2r03Nka24QLP8M9DrgI" version="20.3.2" type="github">
  <diagram id="UT-qD1kF3HPHE-cdim4v" name="Page-1">
    <mxGraphModel dx="1422" dy="1617" grid="0" gridSize="10" guides="1" tooltips="1" connect="1" arrows="1" fold="1" page="1" pageScale="1" pageWidth="1100" pageHeight="850" math="0" shadow="0">
      <root>
        <mxCell id="0" />
        <mxCell id="1" parent="0" />
        <mxCell id="D0WQU8Z_5N7r7djm6m5t-1" value="Window" style="swimlane;fontStyle=1;align=center;verticalAlign=top;childLayout=stackLayout;horizontal=1;startSize=26;horizontalStack=0;resizeParent=1;resizeParentMax=0;resizeLast=0;collapsible=1;marginBottom=0;" parent="1" vertex="1">
          <mxGeometry x="56" y="40" width="160" height="216" as="geometry" />
        </mxCell>
        <mxCell id="D0WQU8Z_5N7r7djm6m5t-2" value="+ panels: list&lt;panel&gt;" style="text;strokeColor=none;fillColor=none;align=left;verticalAlign=top;spacingLeft=4;spacingRight=4;overflow=hidden;rotatable=0;points=[[0,0.5],[1,0.5]];portConstraint=eastwest;" parent="D0WQU8Z_5N7r7djm6m5t-1" vertex="1">
          <mxGeometry y="26" width="160" height="26" as="geometry" />
        </mxCell>
        <mxCell id="D0WQU8Z_5N7r7djm6m5t-6" value="+ menus: list&lt;menu&gt;Â " style="text;strokeColor=none;fillColor=none;align=left;verticalAlign=top;spacingLeft=4;spacingRight=4;overflow=hidden;rotatable=0;points=[[0,0.5],[1,0.5]];portConstraint=eastwest;" parent="D0WQU8Z_5N7r7djm6m5t-1" vertex="1">
          <mxGeometry y="52" width="160" height="26" as="geometry" />
        </mxCell>
        <mxCell id="D0WQU8Z_5N7r7djm6m5t-42" value="+ width: number" style="text;strokeColor=none;fillColor=none;align=left;verticalAlign=top;spacingLeft=4;spacingRight=4;overflow=hidden;rotatable=0;points=[[0,0.5],[1,0.5]];portConstraint=eastwest;" parent="D0WQU8Z_5N7r7djm6m5t-1" vertex="1">
          <mxGeometry y="78" width="160" height="26" as="geometry" />
        </mxCell>
        <mxCell id="D0WQU8Z_5N7r7djm6m5t-43" value="+ height: number" style="text;strokeColor=none;fillColor=none;align=left;verticalAlign=top;spacingLeft=4;spacingRight=4;overflow=hidden;rotatable=0;points=[[0,0.5],[1,0.5]];portConstraint=eastwest;" parent="D0WQU8Z_5N7r7djm6m5t-1" vertex="1">
          <mxGeometry y="104" width="160" height="26" as="geometry" />
        </mxCell>
        <mxCell id="D0WQU8Z_5N7r7djm6m5t-3" value="" style="line;strokeWidth=1;fillColor=none;align=left;verticalAlign=middle;spacingTop=-1;spacingLeft=3;spacingRight=3;rotatable=0;labelPosition=right;points=[];portConstraint=eastwest;strokeColor=inherit;" parent="D0WQU8Z_5N7r7djm6m5t-1" vertex="1">
          <mxGeometry y="130" width="160" height="8" as="geometry" />
        </mxCell>
        <mxCell id="D0WQU8Z_5N7r7djm6m5t-4" value="+ open(): void" style="text;strokeColor=none;fillColor=none;align=left;verticalAlign=top;spacingLeft=4;spacingRight=4;overflow=hidden;rotatable=0;points=[[0,0.5],[1,0.5]];portConstraint=eastwest;" parent="D0WQU8Z_5N7r7djm6m5t-1" vertex="1">
          <mxGeometry y="138" width="160" height="26" as="geometry" />
        </mxCell>
        <mxCell id="D0WQU8Z_5N7r7djm6m5t-5" value="+ close(): void" style="text;strokeColor=none;fillColor=none;align=left;verticalAlign=top;spacingLeft=4;spacingRight=4;overflow=hidden;rotatable=0;points=[[0,0.5],[1,0.5]];portConstraint=eastwest;" parent="D0WQU8Z_5N7r7djm6m5t-1" vertex="1">
          <mxGeometry y="164" width="160" height="26" as="geometry" />
        </mxCell>
        <mxCell id="D0WQU8Z_5N7r7djm6m5t-7" value="+ resize(width, height): void" style="text;strokeColor=none;fillColor=none;align=left;verticalAlign=top;spacingLeft=4;spacingRight=4;overflow=hidden;rotatable=0;points=[[0,0.5],[1,0.5]];portConstraint=eastwest;" parent="D0WQU8Z_5N7r7djm6m5t-1" vertex="1">
          <mxGeometry y="190" width="160" height="26" as="geometry" />
        </mxCell>
        <mxCell id="D0WQU8Z_5N7r7djm6m5t-8" value="Panel" style="swimlane;fontStyle=1;align=center;verticalAlign=top;childLayout=stackLayout;horizontal=1;startSize=26;horizontalStack=0;resizeParent=1;resizeParentMax=0;resizeLast=0;collapsible=1;marginBottom=0;" parent="1" vertex="1">
          <mxGeometry x="343" y="40" width="164" height="164" as="geometry" />
        </mxCell>
        <mxCell id="D0WQU8Z_5N7r7djm6m5t-9" value="+ name: string" style="text;strokeColor=none;fillColor=none;align=left;verticalAlign=top;spacingLeft=4;spacingRight=4;overflow=hidden;rotatable=0;points=[[0,0.5],[1,0.5]];portConstraint=eastwest;" parent="D0WQU8Z_5N7r7djm6m5t-8" vertex="1">
          <mxGeometry y="26" width="164" height="26" as="geometry" />
        </mxCell>
        <mxCell id="D0WQU8Z_5N7r7djm6m5t-12" value="+ plotManager: PlotManager" style="text;strokeColor=none;fillColor=none;align=left;verticalAlign=top;spacingLeft=4;spacingRight=4;overflow=hidden;rotatable=0;points=[[0,0.5],[1,0.5]];portConstraint=eastwest;" parent="D0WQU8Z_5N7r7djm6m5t-8" vertex="1">
          <mxGeometry y="52" width="164" height="26" as="geometry" />
        </mxCell>
        <mxCell id="D0WQU8Z_5N7r7djm6m5t-40" value="+ width: number" style="text;strokeColor=none;fillColor=none;align=left;verticalAlign=top;spacingLeft=4;spacingRight=4;overflow=hidden;rotatable=0;points=[[0,0.5],[1,0.5]];portConstraint=eastwest;" parent="D0WQU8Z_5N7r7djm6m5t-8" vertex="1">
          <mxGeometry y="78" width="164" height="26" as="geometry" />
        </mxCell>
        <mxCell id="D0WQU8Z_5N7r7djm6m5t-41" value="+ height: number" style="text;strokeColor=none;fillColor=none;align=left;verticalAlign=top;spacingLeft=4;spacingRight=4;overflow=hidden;rotatable=0;points=[[0,0.5],[1,0.5]];portConstraint=eastwest;" parent="D0WQU8Z_5N7r7djm6m5t-8" vertex="1">
          <mxGeometry y="104" width="164" height="26" as="geometry" />
        </mxCell>
        <mxCell id="D0WQU8Z_5N7r7djm6m5t-10" value="" style="line;strokeWidth=1;fillColor=none;align=left;verticalAlign=middle;spacingTop=-1;spacingLeft=3;spacingRight=3;rotatable=0;labelPosition=right;points=[];portConstraint=eastwest;strokeColor=inherit;" parent="D0WQU8Z_5N7r7djm6m5t-8" vertex="1">
          <mxGeometry y="130" width="164" height="8" as="geometry" />
        </mxCell>
        <mxCell id="D0WQU8Z_5N7r7djm6m5t-11" value="+ close(): void" style="text;strokeColor=none;fillColor=none;align=left;verticalAlign=top;spacingLeft=4;spacingRight=4;overflow=hidden;rotatable=0;points=[[0,0.5],[1,0.5]];portConstraint=eastwest;" parent="D0WQU8Z_5N7r7djm6m5t-8" vertex="1">
          <mxGeometry y="138" width="164" height="26" as="geometry" />
        </mxCell>
        <mxCell id="D0WQU8Z_5N7r7djm6m5t-13" value="Plot" style="swimlane;fontStyle=1;align=center;verticalAlign=top;childLayout=stackLayout;horizontal=1;startSize=26;horizontalStack=0;resizeParent=1;resizeParentMax=0;resizeLast=0;collapsible=1;marginBottom=0;" parent="1" vertex="1">
          <mxGeometry x="868" y="183" width="160" height="320" as="geometry" />
        </mxCell>
        <mxCell id="D0WQU8Z_5N7r7djm6m5t-14" value="+ title: string" style="text;strokeColor=none;fillColor=none;align=left;verticalAlign=top;spacingLeft=4;spacingRight=4;overflow=hidden;rotatable=0;points=[[0,0.5],[1,0.5]];portConstraint=eastwest;" parent="D0WQU8Z_5N7r7djm6m5t-13" vertex="1">
          <mxGeometry y="26" width="160" height="26" as="geometry" />
        </mxCell>
        <mxCell id="D0WQU8Z_5N7r7djm6m5t-17" value="+ xTitle: string" style="text;strokeColor=none;fillColor=none;align=left;verticalAlign=top;spacingLeft=4;spacingRight=4;overflow=hidden;rotatable=0;points=[[0,0.5],[1,0.5]];portConstraint=eastwest;" parent="D0WQU8Z_5N7r7djm6m5t-13" vertex="1">
          <mxGeometry y="52" width="160" height="26" as="geometry" />
        </mxCell>
        <mxCell id="D0WQU8Z_5N7r7djm6m5t-18" value="+ yTitle: string" style="text;strokeColor=none;fillColor=none;align=left;verticalAlign=top;spacingLeft=4;spacingRight=4;overflow=hidden;rotatable=0;points=[[0,0.5],[1,0.5]];portConstraint=eastwest;" parent="D0WQU8Z_5N7r7djm6m5t-13" vertex="1">
          <mxGeometry y="78" width="160" height="26" as="geometry" />
        </mxCell>
        <mxCell id="D0WQU8Z_5N7r7djm6m5t-20" value="+ xTicks: string" style="text;strokeColor=none;fillColor=none;align=left;verticalAlign=top;spacingLeft=4;spacingRight=4;overflow=hidden;rotatable=0;points=[[0,0.5],[1,0.5]];portConstraint=eastwest;" parent="D0WQU8Z_5N7r7djm6m5t-13" vertex="1">
          <mxGeometry y="104" width="160" height="26" as="geometry" />
        </mxCell>
        <mxCell id="D0WQU8Z_5N7r7djm6m5t-19" value="+ yTicks: string" style="text;strokeColor=none;fillColor=none;align=left;verticalAlign=top;spacingLeft=4;spacingRight=4;overflow=hidden;rotatable=0;points=[[0,0.5],[1,0.5]];portConstraint=eastwest;" parent="D0WQU8Z_5N7r7djm6m5t-13" vertex="1">
          <mxGeometry y="130" width="160" height="26" as="geometry" />
        </mxCell>
        <mxCell id="D0WQU8Z_5N7r7djm6m5t-21" value="+ displayData: DataModel" style="text;strokeColor=none;fillColor=none;align=left;verticalAlign=top;spacingLeft=4;spacingRight=4;overflow=hidden;rotatable=0;points=[[0,0.5],[1,0.5]];portConstraint=eastwest;" parent="D0WQU8Z_5N7r7djm6m5t-13" vertex="1">
          <mxGeometry y="156" width="160" height="26" as="geometry" />
        </mxCell>
        <mxCell id="D0WQU8Z_5N7r7djm6m5t-15" value="" style="line;strokeWidth=1;fillColor=none;align=left;verticalAlign=middle;spacingTop=-1;spacingLeft=3;spacingRight=3;rotatable=0;labelPosition=right;points=[];portConstraint=eastwest;strokeColor=inherit;" parent="D0WQU8Z_5N7r7djm6m5t-13" vertex="1">
          <mxGeometry y="182" width="160" height="8" as="geometry" />
        </mxCell>
        <mxCell id="D0WQU8Z_5N7r7djm6m5t-16" value="+ draw(): void" style="text;strokeColor=none;fillColor=none;align=left;verticalAlign=top;spacingLeft=4;spacingRight=4;overflow=hidden;rotatable=0;points=[[0,0.5],[1,0.5]];portConstraint=eastwest;" parent="D0WQU8Z_5N7r7djm6m5t-13" vertex="1">
          <mxGeometry y="190" width="160" height="26" as="geometry" />
        </mxCell>
        <mxCell id="D0WQU8Z_5N7r7djm6m5t-30" value="+ pan(): void" style="text;strokeColor=none;fillColor=none;align=left;verticalAlign=top;spacingLeft=4;spacingRight=4;overflow=hidden;rotatable=0;points=[[0,0.5],[1,0.5]];portConstraint=eastwest;" parent="D0WQU8Z_5N7r7djm6m5t-13" vertex="1">
          <mxGeometry y="216" width="160" height="26" as="geometry" />
        </mxCell>
        <mxCell id="D0WQU8Z_5N7r7djm6m5t-31" value="+ zoomIn(): void" style="text;strokeColor=none;fillColor=none;align=left;verticalAlign=top;spacingLeft=4;spacingRight=4;overflow=hidden;rotatable=0;points=[[0,0.5],[1,0.5]];portConstraint=eastwest;" parent="D0WQU8Z_5N7r7djm6m5t-13" vertex="1">
          <mxGeometry y="242" width="160" height="26" as="geometry" />
        </mxCell>
        <mxCell id="D0WQU8Z_5N7r7djm6m5t-32" value="+ zoomOut(): void" style="text;strokeColor=none;fillColor=none;align=left;verticalAlign=top;spacingLeft=4;spacingRight=4;overflow=hidden;rotatable=0;points=[[0,0.5],[1,0.5]];portConstraint=eastwest;" parent="D0WQU8Z_5N7r7djm6m5t-13" vertex="1">
          <mxGeometry y="268" width="160" height="26" as="geometry" />
        </mxCell>
        <mxCell id="D0WQU8Z_5N7r7djm6m5t-61" value="+ aggregrate(): void" style="text;strokeColor=none;fillColor=none;align=left;verticalAlign=top;spacingLeft=4;spacingRight=4;overflow=hidden;rotatable=0;points=[[0,0.5],[1,0.5]];portConstraint=eastwest;" parent="D0WQU8Z_5N7r7djm6m5t-13" vertex="1">
          <mxGeometry y="294" width="160" height="26" as="geometry" />
        </mxCell>
        <mxCell id="D0WQU8Z_5N7r7djm6m5t-23" value="TimeBox" style="swimlane;fontStyle=1;align=center;verticalAlign=top;childLayout=stackLayout;horizontal=1;startSize=26;horizontalStack=0;resizeParent=1;resizeParentMax=0;resizeLast=0;collapsible=1;marginBottom=0;" parent="1" vertex="1">
          <mxGeometry x="455" y="277" width="160" height="138" as="geometry" />
        </mxCell>
        <mxCell id="D0WQU8Z_5N7r7djm6m5t-24" value="+ startDate: string" style="text;strokeColor=none;fillColor=none;align=left;verticalAlign=top;spacingLeft=4;spacingRight=4;overflow=hidden;rotatable=0;points=[[0,0.5],[1,0.5]];portConstraint=eastwest;" parent="D0WQU8Z_5N7r7djm6m5t-23" vertex="1">
          <mxGeometry y="26" width="160" height="26" as="geometry" />
        </mxCell>
        <mxCell id="D0WQU8Z_5N7r7djm6m5t-27" value="+ endDate: string" style="text;strokeColor=none;fillColor=none;align=left;verticalAlign=top;spacingLeft=4;spacingRight=4;overflow=hidden;rotatable=0;points=[[0,0.5],[1,0.5]];portConstraint=eastwest;" parent="D0WQU8Z_5N7r7djm6m5t-23" vertex="1">
          <mxGeometry y="52" width="160" height="26" as="geometry" />
        </mxCell>
        <mxCell id="D0WQU8Z_5N7r7djm6m5t-25" value="" style="line;strokeWidth=1;fillColor=none;align=left;verticalAlign=middle;spacingTop=-1;spacingLeft=3;spacingRight=3;rotatable=0;labelPosition=right;points=[];portConstraint=eastwest;strokeColor=inherit;" parent="D0WQU8Z_5N7r7djm6m5t-23" vertex="1">
          <mxGeometry y="78" width="160" height="8" as="geometry" />
        </mxCell>
        <mxCell id="D0WQU8Z_5N7r7djm6m5t-26" value="+ getDateRange(): tuple&lt;" style="text;strokeColor=none;fillColor=none;align=left;verticalAlign=top;spacingLeft=4;spacingRight=4;overflow=hidden;rotatable=0;points=[[0,0.5],[1,0.5]];portConstraint=eastwest;" parent="D0WQU8Z_5N7r7djm6m5t-23" vertex="1">
          <mxGeometry y="86" width="160" height="26" as="geometry" />
        </mxCell>
        <mxCell id="D0WQU8Z_5N7r7djm6m5t-51" value="+ updateTime(type): type" style="text;strokeColor=none;fillColor=none;align=left;verticalAlign=top;spacingLeft=4;spacingRight=4;overflow=hidden;rotatable=0;points=[[0,0.5],[1,0.5]];portConstraint=eastwest;" parent="D0WQU8Z_5N7r7djm6m5t-23" vertex="1">
          <mxGeometry y="112" width="160" height="26" as="geometry" />
        </mxCell>
        <mxCell id="D0WQU8Z_5N7r7djm6m5t-35" value="1" style="endArrow=open;html=1;endSize=12;startArrow=diamondThin;startSize=14;startFill=0;edgeStyle=orthogonalEdgeStyle;align=left;verticalAlign=bottom;rounded=0;exitX=1;exitY=0.5;exitDx=0;exitDy=0;entryX=0;entryY=0.5;entryDx=0;entryDy=0;" parent="1" source="D0WQU8Z_5N7r7djm6m5t-2" target="D0WQU8Z_5N7r7djm6m5t-9" edge="1">
          <mxGeometry x="-1" y="3" relative="1" as="geometry">
            <mxPoint x="344" y="306" as="sourcePoint" />
            <mxPoint x="504" y="306" as="targetPoint" />
          </mxGeometry>
        </mxCell>
        <mxCell id="D0WQU8Z_5N7r7djm6m5t-36" value="Contains" style="edgeLabel;html=1;align=center;verticalAlign=middle;resizable=0;points=[];" parent="D0WQU8Z_5N7r7djm6m5t-35" vertex="1" connectable="0">
          <mxGeometry x="0.2054" y="2" relative="1" as="geometry">
            <mxPoint x="-13" as="offset" />
          </mxGeometry>
        </mxCell>
        <mxCell id="D0WQU8Z_5N7r7djm6m5t-44" value="DataModel" style="swimlane;fontStyle=1;align=center;verticalAlign=top;childLayout=stackLayout;horizontal=1;startSize=26;horizontalStack=0;resizeParent=1;resizeParentMax=0;resizeLast=0;collapsible=1;marginBottom=0;" parent="1" vertex="1">
          <mxGeometry x="638" y="440" width="160" height="112" as="geometry" />
        </mxCell>
        <mxCell id="D0WQU8Z_5N7r7djm6m5t-45" value="+ data: dataframe" style="text;strokeColor=none;fillColor=none;align=left;verticalAlign=top;spacingLeft=4;spacingRight=4;overflow=hidden;rotatable=0;points=[[0,0.5],[1,0.5]];portConstraint=eastwest;" parent="D0WQU8Z_5N7r7djm6m5t-44" vertex="1">
          <mxGeometry y="26" width="160" height="26" as="geometry" />
        </mxCell>
        <mxCell id="D0WQU8Z_5N7r7djm6m5t-69" value="+ data: dataframe" style="text;strokeColor=none;fillColor=none;align=left;verticalAlign=top;spacingLeft=4;spacingRight=4;overflow=hidden;rotatable=0;points=[[0,0.5],[1,0.5]];portConstraint=eastwest;" parent="D0WQU8Z_5N7r7djm6m5t-44" vertex="1">
          <mxGeometry y="52" width="160" height="26" as="geometry" />
        </mxCell>
        <mxCell id="D0WQU8Z_5N7r7djm6m5t-46" value="" style="line;strokeWidth=1;fillColor=none;align=left;verticalAlign=middle;spacingTop=-1;spacingLeft=3;spacingRight=3;rotatable=0;labelPosition=right;points=[];portConstraint=eastwest;strokeColor=inherit;" parent="D0WQU8Z_5N7r7djm6m5t-44" vertex="1">
          <mxGeometry y="78" width="160" height="8" as="geometry" />
        </mxCell>
        <mxCell id="D0WQU8Z_5N7r7djm6m5t-47" value="+ aggregrate(): Panel" style="text;strokeColor=none;fillColor=none;align=left;verticalAlign=top;spacingLeft=4;spacingRight=4;overflow=hidden;rotatable=0;points=[[0,0.5],[1,0.5]];portConstraint=eastwest;" parent="D0WQU8Z_5N7r7djm6m5t-44" vertex="1">
          <mxGeometry y="86" width="160" height="26" as="geometry" />
        </mxCell>
        <mxCell id="D0WQU8Z_5N7r7djm6m5t-52" value="PlotManager" style="swimlane;fontStyle=1;align=center;verticalAlign=top;childLayout=stackLayout;horizontal=1;startSize=19;horizontalStack=0;resizeParent=1;resizeParentMax=0;resizeLast=0;collapsible=1;marginBottom=0;" parent="1" vertex="1">
          <mxGeometry x="621" y="40" width="165" height="183" as="geometry" />
        </mxCell>
        <mxCell id="D0WQU8Z_5N7r7djm6m5t-53" value="+ plots: list&lt;plots&gt;" style="text;strokeColor=none;fillColor=none;align=left;verticalAlign=top;spacingLeft=4;spacingRight=4;overflow=hidden;rotatable=0;points=[[0,0.5],[1,0.5]];portConstraint=eastwest;" parent="D0WQU8Z_5N7r7djm6m5t-52" vertex="1">
          <mxGeometry y="19" width="165" height="26" as="geometry" />
        </mxCell>
        <mxCell id="D0WQU8Z_5N7r7djm6m5t-56" value="+ timeBox: TimeBox" style="text;strokeColor=none;fillColor=none;align=left;verticalAlign=top;spacingLeft=4;spacingRight=4;overflow=hidden;rotatable=0;points=[[0,0.5],[1,0.5]];portConstraint=eastwest;" parent="D0WQU8Z_5N7r7djm6m5t-52" vertex="1">
          <mxGeometry y="45" width="165" height="26" as="geometry" />
        </mxCell>
        <mxCell id="D0WQU8Z_5N7r7djm6m5t-54" value="" style="line;strokeWidth=1;fillColor=none;align=left;verticalAlign=middle;spacingTop=-1;spacingLeft=3;spacingRight=3;rotatable=0;labelPosition=right;points=[];portConstraint=eastwest;strokeColor=inherit;" parent="D0WQU8Z_5N7r7djm6m5t-52" vertex="1">
          <mxGeometry y="71" width="165" height="8" as="geometry" />
        </mxCell>
        <mxCell id="D0WQU8Z_5N7r7djm6m5t-55" value="+ syncPlots(): void" style="text;strokeColor=none;fillColor=none;align=left;verticalAlign=top;spacingLeft=4;spacingRight=4;overflow=hidden;rotatable=0;points=[[0,0.5],[1,0.5]];portConstraint=eastwest;" parent="D0WQU8Z_5N7r7djm6m5t-52" vertex="1">
          <mxGeometry y="79" width="165" height="26" as="geometry" />
        </mxCell>
        <mxCell id="D0WQU8Z_5N7r7djm6m5t-57" value="+ addPlot(): void" style="text;strokeColor=none;fillColor=none;align=left;verticalAlign=top;spacingLeft=4;spacingRight=4;overflow=hidden;rotatable=0;points=[[0,0.5],[1,0.5]];portConstraint=eastwest;" parent="D0WQU8Z_5N7r7djm6m5t-52" vertex="1">
          <mxGeometry y="105" width="165" height="26" as="geometry" />
        </mxCell>
        <mxCell id="D0WQU8Z_5N7r7djm6m5t-58" value="+ removePlot(): void" style="text;strokeColor=none;fillColor=none;align=left;verticalAlign=top;spacingLeft=4;spacingRight=4;overflow=hidden;rotatable=0;points=[[0,0.5],[1,0.5]];portConstraint=eastwest;" parent="D0WQU8Z_5N7r7djm6m5t-52" vertex="1">
          <mxGeometry y="131" width="165" height="26" as="geometry" />
        </mxCell>
        <mxCell id="D0WQU8Z_5N7r7djm6m5t-67" value="+ aggregratePlot(plot): PanelÂ " style="text;strokeColor=none;fillColor=none;align=left;verticalAlign=top;spacingLeft=4;spacingRight=4;overflow=hidden;rotatable=0;points=[[0,0.5],[1,0.5]];portConstraint=eastwest;" parent="D0WQU8Z_5N7r7djm6m5t-52" vertex="1">
          <mxGeometry y="157" width="165" height="26" as="geometry" />
        </mxCell>
        <mxCell id="D0WQU8Z_5N7r7djm6m5t-63" value="1" style="endArrow=open;html=1;endSize=12;startArrow=diamondThin;startSize=14;startFill=0;edgeStyle=orthogonalEdgeStyle;align=left;verticalAlign=bottom;rounded=0;exitX=1;exitY=0.5;exitDx=0;exitDy=0;entryX=0.5;entryY=0;entryDx=0;entryDy=0;" parent="1" source="D0WQU8Z_5N7r7djm6m5t-53" target="D0WQU8Z_5N7r7djm6m5t-13" edge="1">
          <mxGeometry x="-1" y="3" relative="1" as="geometry">
            <mxPoint x="344" y="306" as="sourcePoint" />
            <mxPoint x="504" y="306" as="targetPoint" />
            <Array as="points">
              <mxPoint x="948" y="72" />
            </Array>
          </mxGeometry>
        </mxCell>
        <mxCell id="D0WQU8Z_5N7r7djm6m5t-65" style="edgeStyle=orthogonalEdgeStyle;rounded=0;orthogonalLoop=1;jettySize=auto;html=1;exitX=0;exitY=0.5;exitDx=0;exitDy=0;entryX=0.5;entryY=0;entryDx=0;entryDy=0;" parent="1" source="D0WQU8Z_5N7r7djm6m5t-21" target="D0WQU8Z_5N7r7djm6m5t-44" edge="1">
          <mxGeometry relative="1" as="geometry" />
        </mxCell>
        <mxCell id="D0WQU8Z_5N7r7djm6m5t-70" value="1" style="endArrow=open;html=1;endSize=12;startArrow=diamondThin;startSize=14;startFill=1;edgeStyle=orthogonalEdgeStyle;align=left;verticalAlign=bottom;rounded=0;entryX=0.5;entryY=0;entryDx=0;entryDy=0;" parent="1" target="D0WQU8Z_5N7r7djm6m5t-52" edge="1">
          <mxGeometry x="-1" y="3" relative="1" as="geometry">
            <mxPoint x="506" y="104" as="sourcePoint" />
            <mxPoint x="663" y="104" as="targetPoint" />
            <Array as="points">
              <mxPoint x="564" y="104" />
              <mxPoint x="564" y="13" />
              <mxPoint x="704" y="13" />
            </Array>
          </mxGeometry>
        </mxCell>
        <mxCell id="D0WQU8Z_5N7r7djm6m5t-71" value="1" style="endArrow=open;html=1;endSize=12;startArrow=diamondThin;startSize=14;startFill=1;edgeStyle=orthogonalEdgeStyle;align=left;verticalAlign=bottom;rounded=0;exitX=0;exitY=0.5;exitDx=0;exitDy=0;entryX=0.5;entryY=0;entryDx=0;entryDy=0;" parent="1" source="D0WQU8Z_5N7r7djm6m5t-56" target="D0WQU8Z_5N7r7djm6m5t-23" edge="1">
          <mxGeometry x="-0.6" y="-20" relative="1" as="geometry">
            <mxPoint x="344" y="306" as="sourcePoint" />
            <mxPoint x="504" y="306" as="targetPoint" />
            <Array as="points">
              <mxPoint x="588" y="98" />
              <mxPoint x="588" y="118" />
              <mxPoint x="535" y="118" />
            </Array>
            <mxPoint x="20" y="20" as="offset" />
          </mxGeometry>
        </mxCell>
        <mxCell id="D0WQU8Z_5N7r7djm6m5t-72" value="Window" style="swimlane;fontStyle=1;align=center;verticalAlign=top;childLayout=stackLayout;horizontal=1;startSize=26;horizontalStack=0;resizeParent=1;resizeParentMax=0;resizeLast=0;collapsible=1;marginBottom=0;" parent="1" vertex="1">
          <mxGeometry x="41" y="-818" width="178" height="268" as="geometry">
            <mxRectangle x="41" y="-818" width="81" height="26" as="alternateBounds" />
          </mxGeometry>
        </mxCell>
        <mxCell id="D0WQU8Z_5N7r7djm6m5t-74" value="widgets: list&lt;Widget&gt;Â " style="text;strokeColor=none;fillColor=none;align=left;verticalAlign=top;spacingLeft=4;spacingRight=4;overflow=hidden;rotatable=0;points=[[0,0.5],[1,0.5]];portConstraint=eastwest;" parent="D0WQU8Z_5N7r7djm6m5t-72" vertex="1">
          <mxGeometry y="26" width="178" height="26" as="geometry" />
        </mxCell>
        <mxCell id="D0WQU8Z_5N7r7djm6m5t-73" value="panels: list&lt;Panel&gt;" style="text;strokeColor=none;fillColor=none;align=left;verticalAlign=top;spacingLeft=4;spacingRight=4;overflow=hidden;rotatable=0;points=[[0,0.5],[1,0.5]];portConstraint=eastwest;" parent="D0WQU8Z_5N7r7djm6m5t-72" vertex="1">
          <mxGeometry y="52" width="178" height="26" as="geometry" />
        </mxCell>
        <mxCell id="D0WQU8Z_5N7r7djm6m5t-75" value="width: number" style="text;strokeColor=none;fillColor=none;align=left;verticalAlign=top;spacingLeft=4;spacingRight=4;overflow=hidden;rotatable=0;points=[[0,0.5],[1,0.5]];portConstraint=eastwest;" parent="D0WQU8Z_5N7r7djm6m5t-72" vertex="1">
          <mxGeometry y="78" width="178" height="26" as="geometry" />
        </mxCell>
        <mxCell id="D0WQU8Z_5N7r7djm6m5t-76" value="height: number" style="text;strokeColor=none;fillColor=none;align=left;verticalAlign=top;spacingLeft=4;spacingRight=4;overflow=hidden;rotatable=0;points=[[0,0.5],[1,0.5]];portConstraint=eastwest;" parent="D0WQU8Z_5N7r7djm6m5t-72" vertex="1">
          <mxGeometry y="104" width="178" height="26" as="geometry" />
        </mxCell>
        <mxCell id="D0WQU8Z_5N7r7djm6m5t-77" value="" style="line;strokeWidth=1;fillColor=none;align=left;verticalAlign=middle;spacingTop=-1;spacingLeft=3;spacingRight=3;rotatable=0;labelPosition=right;points=[];portConstraint=eastwest;strokeColor=inherit;" parent="D0WQU8Z_5N7r7djm6m5t-72" vertex="1">
          <mxGeometry y="130" width="178" height="8" as="geometry" />
        </mxCell>
        <mxCell id="D0WQU8Z_5N7r7djm6m5t-78" value="open(): void" style="text;strokeColor=none;fillColor=none;align=left;verticalAlign=top;spacingLeft=4;spacingRight=4;overflow=hidden;rotatable=0;points=[[0,0.5],[1,0.5]];portConstraint=eastwest;" parent="D0WQU8Z_5N7r7djm6m5t-72" vertex="1">
          <mxGeometry y="138" width="178" height="26" as="geometry" />
        </mxCell>
        <mxCell id="D0WQU8Z_5N7r7djm6m5t-79" value="close(): void" style="text;strokeColor=none;fillColor=none;align=left;verticalAlign=top;spacingLeft=4;spacingRight=4;overflow=hidden;rotatable=0;points=[[0,0.5],[1,0.5]];portConstraint=eastwest;" parent="D0WQU8Z_5N7r7djm6m5t-72" vertex="1">
          <mxGeometry y="164" width="178" height="26" as="geometry" />
        </mxCell>
        <mxCell id="D0WQU8Z_5N7r7djm6m5t-80" value="resize(number, number): void" style="text;strokeColor=none;fillColor=none;align=left;verticalAlign=top;spacingLeft=4;spacingRight=4;overflow=hidden;rotatable=0;points=[[0,0.5],[1,0.5]];portConstraint=eastwest;" parent="D0WQU8Z_5N7r7djm6m5t-72" vertex="1">
          <mxGeometry y="190" width="178" height="26" as="geometry" />
        </mxCell>
        <mxCell id="D0WQU8Z_5N7r7djm6m5t-138" value="addPanel(panel): void" style="text;strokeColor=none;fillColor=none;align=left;verticalAlign=top;spacingLeft=4;spacingRight=4;overflow=hidden;rotatable=0;points=[[0,0.5],[1,0.5]];portConstraint=eastwest;" parent="D0WQU8Z_5N7r7djm6m5t-72" vertex="1">
          <mxGeometry y="216" width="178" height="26" as="geometry" />
        </mxCell>
        <mxCell id="D0WQU8Z_5N7r7djm6m5t-140" value="removePanel(panel): void" style="text;strokeColor=none;fillColor=none;align=left;verticalAlign=top;spacingLeft=4;spacingRight=4;overflow=hidden;rotatable=0;points=[[0,0.5],[1,0.5]];portConstraint=eastwest;" parent="D0WQU8Z_5N7r7djm6m5t-72" vertex="1">
          <mxGeometry y="242" width="178" height="26" as="geometry" />
        </mxCell>
        <mxCell id="D0WQU8Z_5N7r7djm6m5t-81" value="Panel" style="swimlane;fontStyle=1;align=center;verticalAlign=top;childLayout=stackLayout;horizontal=1;startSize=26;horizontalStack=0;resizeParent=1;resizeParentMax=0;resizeLast=0;collapsible=1;marginBottom=0;" parent="1" vertex="1">
          <mxGeometry x="284" y="-701" width="181" height="242" as="geometry">
            <mxRectangle x="320" y="-818" width="67" height="26" as="alternateBounds" />
          </mxGeometry>
        </mxCell>
        <mxCell id="D0WQU8Z_5N7r7djm6m5t-82" value="name: string" style="text;strokeColor=none;fillColor=none;align=left;verticalAlign=top;spacingLeft=4;spacingRight=4;overflow=hidden;rotatable=0;points=[[0,0.5],[1,0.5]];portConstraint=eastwest;" parent="D0WQU8Z_5N7r7djm6m5t-81" vertex="1">
          <mxGeometry y="26" width="181" height="26" as="geometry" />
        </mxCell>
        <mxCell id="D0WQU8Z_5N7r7djm6m5t-84" value="width: number" style="text;strokeColor=none;fillColor=none;align=left;verticalAlign=top;spacingLeft=4;spacingRight=4;overflow=hidden;rotatable=0;points=[[0,0.5],[1,0.5]];portConstraint=eastwest;" parent="D0WQU8Z_5N7r7djm6m5t-81" vertex="1">
          <mxGeometry y="52" width="181" height="26" as="geometry" />
        </mxCell>
        <mxCell id="D0WQU8Z_5N7r7djm6m5t-85" value="height: number" style="text;strokeColor=none;fillColor=none;align=left;verticalAlign=top;spacingLeft=4;spacingRight=4;overflow=hidden;rotatable=0;points=[[0,0.5],[1,0.5]];portConstraint=eastwest;" parent="D0WQU8Z_5N7r7djm6m5t-81" vertex="1">
          <mxGeometry y="78" width="181" height="26" as="geometry" />
        </mxCell>
        <mxCell id="VL1n-k4XV_zTkOc4iAcl-5" value="widgets: list&lt;Widget&gt;" style="text;strokeColor=none;fillColor=none;align=left;verticalAlign=top;spacingLeft=4;spacingRight=4;overflow=hidden;rotatable=0;points=[[0,0.5],[1,0.5]];portConstraint=eastwest;" parent="D0WQU8Z_5N7r7djm6m5t-81" vertex="1">
          <mxGeometry y="104" width="181" height="26" as="geometry" />
        </mxCell>
        <mxCell id="D0WQU8Z_5N7r7djm6m5t-86" value="" style="line;strokeWidth=1;fillColor=none;align=left;verticalAlign=middle;spacingTop=-1;spacingLeft=3;spacingRight=3;rotatable=0;labelPosition=right;points=[];portConstraint=eastwest;strokeColor=inherit;" parent="D0WQU8Z_5N7r7djm6m5t-81" vertex="1">
          <mxGeometry y="130" width="181" height="8" as="geometry" />
        </mxCell>
        <mxCell id="D0WQU8Z_5N7r7djm6m5t-87" value="close(): void" style="text;strokeColor=none;fillColor=none;align=left;verticalAlign=top;spacingLeft=4;spacingRight=4;overflow=hidden;rotatable=0;points=[[0,0.5],[1,0.5]];portConstraint=eastwest;" parent="D0WQU8Z_5N7r7djm6m5t-81" vertex="1">
          <mxGeometry y="138" width="181" height="26" as="geometry" />
        </mxCell>
        <mxCell id="D0WQU8Z_5N7r7djm6m5t-108" value="resize(number, number): void" style="text;strokeColor=none;fillColor=none;align=left;verticalAlign=top;spacingLeft=4;spacingRight=4;overflow=hidden;rotatable=0;points=[[0,0.5],[1,0.5]];portConstraint=eastwest;" parent="D0WQU8Z_5N7r7djm6m5t-81" vertex="1">
          <mxGeometry y="164" width="181" height="26" as="geometry" />
        </mxCell>
        <mxCell id="f68Y0WPvlqwC1lVv3MSY-29" value="syncPlots(): void" style="text;strokeColor=none;fillColor=none;align=left;verticalAlign=top;spacingLeft=4;spacingRight=4;overflow=hidden;rotatable=0;points=[[0,0.5],[1,0.5]];portConstraint=eastwest;" vertex="1" parent="D0WQU8Z_5N7r7djm6m5t-81">
          <mxGeometry y="190" width="181" height="26" as="geometry" />
        </mxCell>
        <mxCell id="f68Y0WPvlqwC1lVv3MSY-37" value="aggregratePlot(Plot): Plot" style="text;strokeColor=none;fillColor=none;align=left;verticalAlign=top;spacingLeft=4;spacingRight=4;overflow=hidden;rotatable=0;points=[[0,0.5],[1,0.5]];portConstraint=eastwest;" vertex="1" parent="D0WQU8Z_5N7r7djm6m5t-81">
          <mxGeometry y="216" width="181" height="26" as="geometry" />
        </mxCell>
        <mxCell id="D0WQU8Z_5N7r7djm6m5t-119" value="Plot" style="swimlane;fontStyle=1;align=center;verticalAlign=top;childLayout=stackLayout;horizontal=1;startSize=26;horizontalStack=0;resizeParent=1;resizeParentMax=0;resizeLast=0;collapsible=1;marginBottom=0;" parent="1" vertex="1">
          <mxGeometry x="507" y="-544" width="221" height="450" as="geometry" />
        </mxCell>
        <mxCell id="D0WQU8Z_5N7r7djm6m5t-120" value="title: string" style="text;strokeColor=none;fillColor=none;align=left;verticalAlign=top;spacingLeft=4;spacingRight=4;overflow=hidden;rotatable=0;points=[[0,0.5],[1,0.5]];portConstraint=eastwest;" parent="D0WQU8Z_5N7r7djm6m5t-119" vertex="1">
          <mxGeometry y="26" width="221" height="26" as="geometry" />
        </mxCell>
        <mxCell id="D0WQU8Z_5N7r7djm6m5t-121" value="xTitle: string" style="text;strokeColor=none;fillColor=none;align=left;verticalAlign=top;spacingLeft=4;spacingRight=4;overflow=hidden;rotatable=0;points=[[0,0.5],[1,0.5]];portConstraint=eastwest;" parent="D0WQU8Z_5N7r7djm6m5t-119" vertex="1">
          <mxGeometry y="52" width="221" height="26" as="geometry" />
        </mxCell>
        <mxCell id="D0WQU8Z_5N7r7djm6m5t-122" value="yTitle: string" style="text;strokeColor=none;fillColor=none;align=left;verticalAlign=top;spacingLeft=4;spacingRight=4;overflow=hidden;rotatable=0;points=[[0,0.5],[1,0.5]];portConstraint=eastwest;" parent="D0WQU8Z_5N7r7djm6m5t-119" vertex="1">
          <mxGeometry y="78" width="221" height="26" as="geometry" />
        </mxCell>
        <mxCell id="D0WQU8Z_5N7r7djm6m5t-123" value="xTicks" style="text;strokeColor=none;fillColor=none;align=left;verticalAlign=top;spacingLeft=4;spacingRight=4;overflow=hidden;rotatable=0;points=[[0,0.5],[1,0.5]];portConstraint=eastwest;" parent="D0WQU8Z_5N7r7djm6m5t-119" vertex="1">
          <mxGeometry y="104" width="221" height="26" as="geometry" />
        </mxCell>
        <mxCell id="D0WQU8Z_5N7r7djm6m5t-124" value="yTicks" style="text;strokeColor=none;fillColor=none;align=left;verticalAlign=top;spacingLeft=4;spacingRight=4;overflow=hidden;rotatable=0;points=[[0,0.5],[1,0.5]];portConstraint=eastwest;" parent="D0WQU8Z_5N7r7djm6m5t-119" vertex="1">
          <mxGeometry y="130" width="221" height="26" as="geometry" />
        </mxCell>
        <mxCell id="f68Y0WPvlqwC1lVv3MSY-33" value="xMin" style="text;strokeColor=none;fillColor=none;align=left;verticalAlign=top;spacingLeft=4;spacingRight=4;overflow=hidden;rotatable=0;points=[[0,0.5],[1,0.5]];portConstraint=eastwest;" vertex="1" parent="D0WQU8Z_5N7r7djm6m5t-119">
          <mxGeometry y="156" width="221" height="26" as="geometry" />
        </mxCell>
        <mxCell id="f68Y0WPvlqwC1lVv3MSY-34" value="yMin" style="text;strokeColor=none;fillColor=none;align=left;verticalAlign=top;spacingLeft=4;spacingRight=4;overflow=hidden;rotatable=0;points=[[0,0.5],[1,0.5]];portConstraint=eastwest;" vertex="1" parent="D0WQU8Z_5N7r7djm6m5t-119">
          <mxGeometry y="182" width="221" height="26" as="geometry" />
        </mxCell>
        <mxCell id="f68Y0WPvlqwC1lVv3MSY-35" value="xMax" style="text;strokeColor=none;fillColor=none;align=left;verticalAlign=top;spacingLeft=4;spacingRight=4;overflow=hidden;rotatable=0;points=[[0,0.5],[1,0.5]];portConstraint=eastwest;" vertex="1" parent="D0WQU8Z_5N7r7djm6m5t-119">
          <mxGeometry y="208" width="221" height="26" as="geometry" />
        </mxCell>
        <mxCell id="f68Y0WPvlqwC1lVv3MSY-36" value="yMax" style="text;strokeColor=none;fillColor=none;align=left;verticalAlign=top;spacingLeft=4;spacingRight=4;overflow=hidden;rotatable=0;points=[[0,0.5],[1,0.5]];portConstraint=eastwest;" vertex="1" parent="D0WQU8Z_5N7r7djm6m5t-119">
          <mxGeometry y="234" width="221" height="26" as="geometry" />
        </mxCell>
        <mxCell id="D0WQU8Z_5N7r7djm6m5t-125" value="displayData: DataModel" style="text;strokeColor=none;fillColor=none;align=left;verticalAlign=top;spacingLeft=4;spacingRight=4;overflow=hidden;rotatable=0;points=[[0,0.5],[1,0.5]];portConstraint=eastwest;" parent="D0WQU8Z_5N7r7djm6m5t-119" vertex="1">
          <mxGeometry y="260" width="221" height="26" as="geometry" />
        </mxCell>
        <mxCell id="D0WQU8Z_5N7r7djm6m5t-126" value="" style="line;strokeWidth=1;fillColor=none;align=left;verticalAlign=middle;spacingTop=-1;spacingLeft=3;spacingRight=3;rotatable=0;labelPosition=right;points=[];portConstraint=eastwest;strokeColor=inherit;" parent="D0WQU8Z_5N7r7djm6m5t-119" vertex="1">
          <mxGeometry y="286" width="221" height="8" as="geometry" />
        </mxCell>
        <mxCell id="D0WQU8Z_5N7r7djm6m5t-127" value="draw(): void" style="text;strokeColor=none;fillColor=none;align=left;verticalAlign=top;spacingLeft=4;spacingRight=4;overflow=hidden;rotatable=0;points=[[0,0.5],[1,0.5]];portConstraint=eastwest;" parent="D0WQU8Z_5N7r7djm6m5t-119" vertex="1">
          <mxGeometry y="294" width="221" height="26" as="geometry" />
        </mxCell>
        <mxCell id="D0WQU8Z_5N7r7djm6m5t-128" value="pan(number, number): void" style="text;strokeColor=none;fillColor=none;align=left;verticalAlign=top;spacingLeft=4;spacingRight=4;overflow=hidden;rotatable=0;points=[[0,0.5],[1,0.5]];portConstraint=eastwest;" parent="D0WQU8Z_5N7r7djm6m5t-119" vertex="1">
          <mxGeometry y="320" width="221" height="26" as="geometry" />
        </mxCell>
        <mxCell id="D0WQU8Z_5N7r7djm6m5t-129" value="zoomIn(): void" style="text;strokeColor=none;fillColor=none;align=left;verticalAlign=top;spacingLeft=4;spacingRight=4;overflow=hidden;rotatable=0;points=[[0,0.5],[1,0.5]];portConstraint=eastwest;" parent="D0WQU8Z_5N7r7djm6m5t-119" vertex="1">
          <mxGeometry y="346" width="221" height="26" as="geometry" />
        </mxCell>
        <mxCell id="D0WQU8Z_5N7r7djm6m5t-130" value="zoomOut(): void" style="text;strokeColor=none;fillColor=none;align=left;verticalAlign=top;spacingLeft=4;spacingRight=4;overflow=hidden;rotatable=0;points=[[0,0.5],[1,0.5]];portConstraint=eastwest;" parent="D0WQU8Z_5N7r7djm6m5t-119" vertex="1">
          <mxGeometry y="372" width="221" height="26" as="geometry" />
        </mxCell>
        <mxCell id="f68Y0WPvlqwC1lVv3MSY-30" value="setXRange(number, number): void" style="text;strokeColor=none;fillColor=none;align=left;verticalAlign=top;spacingLeft=4;spacingRight=4;overflow=hidden;rotatable=0;points=[[0,0.5],[1,0.5]];portConstraint=eastwest;" vertex="1" parent="D0WQU8Z_5N7r7djm6m5t-119">
          <mxGeometry y="398" width="221" height="26" as="geometry" />
        </mxCell>
        <mxCell id="f68Y0WPvlqwC1lVv3MSY-31" value="setYRange(number, number): void" style="text;strokeColor=none;fillColor=none;align=left;verticalAlign=top;spacingLeft=4;spacingRight=4;overflow=hidden;rotatable=0;points=[[0,0.5],[1,0.5]];portConstraint=eastwest;" vertex="1" parent="D0WQU8Z_5N7r7djm6m5t-119">
          <mxGeometry y="424" width="221" height="26" as="geometry" />
        </mxCell>
        <mxCell id="f68Y0WPvlqwC1lVv3MSY-20" style="edgeStyle=orthogonalEdgeStyle;rounded=0;orthogonalLoop=1;jettySize=auto;html=1;exitX=1;exitY=0.5;exitDx=0;exitDy=0;entryX=0;entryY=0.5;entryDx=0;entryDy=0;" edge="1" parent="1" source="D0WQU8Z_5N7r7djm6m5t-147" target="D0WQU8Z_5N7r7djm6m5t-125">
          <mxGeometry relative="1" as="geometry" />
        </mxCell>
        <mxCell id="D0WQU8Z_5N7r7djm6m5t-141" value="DataModel" style="swimlane;fontStyle=1;align=center;verticalAlign=top;childLayout=stackLayout;horizontal=1;startSize=26;horizontalStack=0;resizeParent=1;resizeParentMax=0;resizeLast=0;collapsible=1;marginBottom=0;" parent="1" vertex="1">
          <mxGeometry x="81" y="-396" width="262" height="216" as="geometry" />
        </mxCell>
        <mxCell id="D0WQU8Z_5N7r7djm6m5t-142" value="data: matrix" style="text;strokeColor=none;fillColor=none;align=left;verticalAlign=top;spacingLeft=4;spacingRight=4;overflow=hidden;rotatable=0;points=[[0,0.5],[1,0.5]];portConstraint=eastwest;" parent="D0WQU8Z_5N7r7djm6m5t-141" vertex="1">
          <mxGeometry y="26" width="262" height="26" as="geometry" />
        </mxCell>
        <mxCell id="D0WQU8Z_5N7r7djm6m5t-144" value="" style="line;strokeWidth=1;fillColor=none;align=left;verticalAlign=middle;spacingTop=-1;spacingLeft=3;spacingRight=3;rotatable=0;labelPosition=right;points=[];portConstraint=eastwest;strokeColor=inherit;" parent="D0WQU8Z_5N7r7djm6m5t-141" vertex="1">
          <mxGeometry y="52" width="262" height="8" as="geometry" />
        </mxCell>
        <mxCell id="D0WQU8Z_5N7r7djm6m5t-145" value="aggregrate(): dict" style="text;strokeColor=none;fillColor=none;align=left;verticalAlign=top;spacingLeft=4;spacingRight=4;overflow=hidden;rotatable=0;points=[[0,0.5],[1,0.5]];portConstraint=eastwest;" parent="D0WQU8Z_5N7r7djm6m5t-141" vertex="1">
          <mxGeometry y="60" width="262" height="26" as="geometry" />
        </mxCell>
        <mxCell id="D0WQU8Z_5N7r7djm6m5t-146" value="openCSV(): fp" style="text;strokeColor=none;fillColor=none;align=left;verticalAlign=top;spacingLeft=4;spacingRight=4;overflow=hidden;rotatable=0;points=[[0,0.5],[1,0.5]];portConstraint=eastwest;" parent="D0WQU8Z_5N7r7djm6m5t-141" vertex="1">
          <mxGeometry y="86" width="262" height="26" as="geometry" />
        </mxCell>
        <mxCell id="D0WQU8Z_5N7r7djm6m5t-147" value="closeCSV(fp): fp" style="text;strokeColor=none;fillColor=none;align=left;verticalAlign=top;spacingLeft=4;spacingRight=4;overflow=hidden;rotatable=0;points=[[0,0.5],[1,0.5]];portConstraint=eastwest;" parent="D0WQU8Z_5N7r7djm6m5t-141" vertex="1">
          <mxGeometry y="112" width="262" height="26" as="geometry" />
        </mxCell>
        <mxCell id="VL1n-k4XV_zTkOc4iAcl-8" value="updateTimeWindow(string, string): void" style="text;strokeColor=none;fillColor=none;align=left;verticalAlign=top;spacingLeft=4;spacingRight=4;overflow=hidden;rotatable=0;points=[[0,0.5],[1,0.5]];portConstraint=eastwest;" parent="D0WQU8Z_5N7r7djm6m5t-141" vertex="1">
          <mxGeometry y="138" width="262" height="26" as="geometry" />
        </mxCell>
        <mxCell id="VL1n-k4XV_zTkOc4iAcl-9" value="addColumn(string): void" style="text;strokeColor=none;fillColor=none;align=left;verticalAlign=top;spacingLeft=4;spacingRight=4;overflow=hidden;rotatable=0;points=[[0,0.5],[1,0.5]];portConstraint=eastwest;" parent="D0WQU8Z_5N7r7djm6m5t-141" vertex="1">
          <mxGeometry y="164" width="262" height="26" as="geometry" />
        </mxCell>
        <mxCell id="VL1n-k4XV_zTkOc4iAcl-10" value="removeColumn(string): void" style="text;strokeColor=none;fillColor=none;align=left;verticalAlign=top;spacingLeft=4;spacingRight=4;overflow=hidden;rotatable=0;points=[[0,0.5],[1,0.5]];portConstraint=eastwest;" parent="D0WQU8Z_5N7r7djm6m5t-141" vertex="1">
          <mxGeometry y="190" width="262" height="26" as="geometry" />
        </mxCell>
        <mxCell id="VL1n-k4XV_zTkOc4iAcl-33" style="edgeStyle=orthogonalEdgeStyle;rounded=0;orthogonalLoop=1;jettySize=auto;html=1;exitX=0;exitY=0.25;exitDx=0;exitDy=0;entryX=1;entryY=0.5;entryDx=0;entryDy=0;" parent="1" source="VL1n-k4XV_zTkOc4iAcl-19" edge="1">
          <mxGeometry relative="1" as="geometry">
            <mxPoint x="775" y="-714.5" as="targetPoint" />
            <Array as="points">
              <mxPoint x="801" y="-809" />
              <mxPoint x="801" y="-714" />
            </Array>
          </mxGeometry>
        </mxCell>
        <mxCell id="VL1n-k4XV_zTkOc4iAcl-19" value="Button" style="swimlane;fontStyle=1;childLayout=stackLayout;horizontal=1;startSize=26;fillColor=none;horizontalStack=0;resizeParent=1;resizeParentMax=0;resizeLast=0;collapsible=1;marginBottom=0;" parent="1" vertex="1">
          <mxGeometry x="829.5" y="-835" width="161" height="104" as="geometry" />
        </mxCell>
        <mxCell id="VL1n-k4XV_zTkOc4iAcl-20" value="state: boolÂ " style="text;strokeColor=none;fillColor=none;align=left;verticalAlign=top;spacingLeft=4;spacingRight=4;overflow=hidden;rotatable=0;points=[[0,0.5],[1,0.5]];portConstraint=eastwest;" parent="VL1n-k4XV_zTkOc4iAcl-19" vertex="1">
          <mxGeometry y="26" width="161" height="26" as="geometry" />
        </mxCell>
        <mxCell id="VL1n-k4XV_zTkOc4iAcl-21" value="numberPresses: number" style="text;strokeColor=none;fillColor=none;align=left;verticalAlign=top;spacingLeft=4;spacingRight=4;overflow=hidden;rotatable=0;points=[[0,0.5],[1,0.5]];portConstraint=eastwest;" parent="VL1n-k4XV_zTkOc4iAcl-19" vertex="1">
          <mxGeometry y="52" width="161" height="26" as="geometry" />
        </mxCell>
        <mxCell id="quWaPmoQ8DVM9i6n_BUd-2" value="active: bool" style="text;strokeColor=none;fillColor=none;align=left;verticalAlign=top;spacingLeft=4;spacingRight=4;overflow=hidden;rotatable=0;points=[[0,0.5],[1,0.5]];portConstraint=eastwest;" parent="VL1n-k4XV_zTkOc4iAcl-19" vertex="1">
          <mxGeometry y="78" width="161" height="26" as="geometry" />
        </mxCell>
        <mxCell id="VL1n-k4XV_zTkOc4iAcl-39" style="edgeStyle=orthogonalEdgeStyle;rounded=0;orthogonalLoop=1;jettySize=auto;html=1;exitX=0;exitY=0.25;exitDx=0;exitDy=0;entryX=1;entryY=0.75;entryDx=0;entryDy=0;" parent="1" source="quWaPmoQ8DVM9i6n_BUd-6" edge="1">
          <mxGeometry relative="1" as="geometry">
            <mxPoint x="813" y="-680" as="sourcePoint" />
            <mxPoint x="775" y="-682.75" as="targetPoint" />
          </mxGeometry>
        </mxCell>
        <mxCell id="f68Y0WPvlqwC1lVv3MSY-25" style="edgeStyle=orthogonalEdgeStyle;rounded=0;orthogonalLoop=1;jettySize=auto;html=1;exitX=0;exitY=0.25;exitDx=0;exitDy=0;entryX=1;entryY=0.5;entryDx=0;entryDy=0;" edge="1" parent="1" source="VL1n-k4XV_zTkOc4iAcl-40" target="f68Y0WPvlqwC1lVv3MSY-19">
          <mxGeometry relative="1" as="geometry" />
        </mxCell>
        <mxCell id="VL1n-k4XV_zTkOc4iAcl-40" value="Dropdown" style="swimlane;fontStyle=1;align=center;verticalAlign=top;childLayout=stackLayout;horizontal=1;startSize=26;horizontalStack=0;resizeParent=1;resizeParentMax=0;resizeLast=0;collapsible=1;marginBottom=0;" parent="1" vertex="1">
          <mxGeometry x="822" y="-517" width="160" height="78" as="geometry" />
        </mxCell>
        <mxCell id="VL1n-k4XV_zTkOc4iAcl-41" value="options: list&lt;string&gt;" style="text;strokeColor=none;fillColor=none;align=left;verticalAlign=top;spacingLeft=4;spacingRight=4;overflow=hidden;rotatable=0;points=[[0,0.5],[1,0.5]];portConstraint=eastwest;" parent="VL1n-k4XV_zTkOc4iAcl-40" vertex="1">
          <mxGeometry y="26" width="160" height="26" as="geometry" />
        </mxCell>
        <mxCell id="VL1n-k4XV_zTkOc4iAcl-44" value="currentOption: string" style="text;strokeColor=none;fillColor=none;align=left;verticalAlign=top;spacingLeft=4;spacingRight=4;overflow=hidden;rotatable=0;points=[[0,0.5],[1,0.5]];portConstraint=eastwest;" parent="VL1n-k4XV_zTkOc4iAcl-40" vertex="1">
          <mxGeometry y="52" width="160" height="26" as="geometry" />
        </mxCell>
        <mxCell id="quWaPmoQ8DVM9i6n_BUd-6" value="TimeBox" style="swimlane;fontStyle=1;align=center;verticalAlign=top;childLayout=stackLayout;horizontal=1;startSize=26;horizontalStack=0;resizeParent=1;resizeParentMax=0;resizeLast=0;collapsible=1;marginBottom=0;" parent="1" vertex="1">
          <mxGeometry x="822" y="-683" width="176" height="112" as="geometry" />
        </mxCell>
        <mxCell id="quWaPmoQ8DVM9i6n_BUd-7" value="startDate: string" style="text;strokeColor=none;fillColor=none;align=left;verticalAlign=top;spacingLeft=4;spacingRight=4;overflow=hidden;rotatable=0;points=[[0,0.5],[1,0.5]];portConstraint=eastwest;" parent="quWaPmoQ8DVM9i6n_BUd-6" vertex="1">
          <mxGeometry y="26" width="176" height="26" as="geometry" />
        </mxCell>
        <mxCell id="quWaPmoQ8DVM9i6n_BUd-10" value="endDate: string" style="text;strokeColor=none;fillColor=none;align=left;verticalAlign=top;spacingLeft=4;spacingRight=4;overflow=hidden;rotatable=0;points=[[0,0.5],[1,0.5]];portConstraint=eastwest;" parent="quWaPmoQ8DVM9i6n_BUd-6" vertex="1">
          <mxGeometry y="52" width="176" height="26" as="geometry" />
        </mxCell>
        <mxCell id="quWaPmoQ8DVM9i6n_BUd-8" value="" style="line;strokeWidth=1;fillColor=none;align=left;verticalAlign=middle;spacingTop=-1;spacingLeft=3;spacingRight=3;rotatable=0;labelPosition=right;points=[];portConstraint=eastwest;strokeColor=inherit;" parent="quWaPmoQ8DVM9i6n_BUd-6" vertex="1">
          <mxGeometry y="78" width="176" height="8" as="geometry" />
        </mxCell>
        <mxCell id="quWaPmoQ8DVM9i6n_BUd-9" value="validateDateRange(): bool" style="text;strokeColor=none;fillColor=none;align=left;verticalAlign=top;spacingLeft=4;spacingRight=4;overflow=hidden;rotatable=0;points=[[0,0.5],[1,0.5]];portConstraint=eastwest;" parent="quWaPmoQ8DVM9i6n_BUd-6" vertex="1">
          <mxGeometry y="86" width="176" height="26" as="geometry" />
        </mxCell>
        <mxCell id="f68Y0WPvlqwC1lVv3MSY-5" value="1" style="endArrow=open;html=1;endSize=12;startArrow=diamondThin;startSize=14;startFill=1;edgeStyle=orthogonalEdgeStyle;align=left;verticalAlign=bottom;rounded=0;exitX=1;exitY=0.5;exitDx=0;exitDy=0;entryX=0;entryY=0.5;entryDx=0;entryDy=0;" edge="1" parent="1" source="VL1n-k4XV_zTkOc4iAcl-5">
          <mxGeometry x="-1" y="3" relative="1" as="geometry">
            <mxPoint x="515" y="-561" as="sourcePoint" />
            <mxPoint x="555" y="-714.5" as="targetPoint" />
            <Array as="points">
              <mxPoint x="513" y="-584" />
              <mxPoint x="513" y="-714" />
            </Array>
          </mxGeometry>
        </mxCell>
        <mxCell id="f68Y0WPvlqwC1lVv3MSY-7" style="edgeStyle=orthogonalEdgeStyle;rounded=0;orthogonalLoop=1;jettySize=auto;html=1;exitX=0.5;exitY=0;exitDx=0;exitDy=0;entryX=0.462;entryY=0.933;entryDx=0;entryDy=0;entryPerimeter=0;" edge="1" parent="1" source="D0WQU8Z_5N7r7djm6m5t-119" target="f68Y0WPvlqwC1lVv3MSY-19">
          <mxGeometry relative="1" as="geometry">
            <mxPoint x="713" y="-608" as="targetPoint" />
            <Array as="points">
              <mxPoint x="618" y="-563" />
              <mxPoint x="653" y="-563" />
            </Array>
          </mxGeometry>
        </mxCell>
        <mxCell id="f68Y0WPvlqwC1lVv3MSY-13" value="Widget (Abstract)" style="swimlane;fontStyle=1;align=center;verticalAlign=top;childLayout=stackLayout;horizontal=1;startSize=26;horizontalStack=0;resizeParent=1;resizeParentMax=0;resizeLast=0;collapsible=1;marginBottom=0;" vertex="1" parent="1">
          <mxGeometry x="550" y="-782" width="223" height="190" as="geometry" />
        </mxCell>
        <mxCell id="f68Y0WPvlqwC1lVv3MSY-14" value="callbacks: dict&lt;list&lt;functions&gt;&gt;" style="text;strokeColor=none;fillColor=none;align=left;verticalAlign=top;spacingLeft=4;spacingRight=4;overflow=hidden;rotatable=0;points=[[0,0.5],[1,0.5]];portConstraint=eastwest;" vertex="1" parent="f68Y0WPvlqwC1lVv3MSY-13">
          <mxGeometry y="26" width="223" height="26" as="geometry" />
        </mxCell>
        <mxCell id="f68Y0WPvlqwC1lVv3MSY-15" value="" style="line;strokeWidth=1;fillColor=none;align=left;verticalAlign=middle;spacingTop=-1;spacingLeft=3;spacingRight=3;rotatable=0;labelPosition=right;points=[];portConstraint=eastwest;strokeColor=inherit;" vertex="1" parent="f68Y0WPvlqwC1lVv3MSY-13">
          <mxGeometry y="52" width="223" height="8" as="geometry" />
        </mxCell>
        <mxCell id="f68Y0WPvlqwC1lVv3MSY-16" value="onClick()" style="text;strokeColor=none;fillColor=none;align=left;verticalAlign=top;spacingLeft=4;spacingRight=4;overflow=hidden;rotatable=0;points=[[0,0.5],[1,0.5]];portConstraint=eastwest;" vertex="1" parent="f68Y0WPvlqwC1lVv3MSY-13">
          <mxGeometry y="60" width="223" height="26" as="geometry" />
        </mxCell>
        <mxCell id="f68Y0WPvlqwC1lVv3MSY-39" value="onRelease()" style="text;strokeColor=none;fillColor=none;align=left;verticalAlign=top;spacingLeft=4;spacingRight=4;overflow=hidden;rotatable=0;points=[[0,0.5],[1,0.5]];portConstraint=eastwest;" vertex="1" parent="f68Y0WPvlqwC1lVv3MSY-13">
          <mxGeometry y="86" width="223" height="26" as="geometry" />
        </mxCell>
        <mxCell id="f68Y0WPvlqwC1lVv3MSY-17" value="onChange()" style="text;strokeColor=none;fillColor=none;align=left;verticalAlign=top;spacingLeft=4;spacingRight=4;overflow=hidden;rotatable=0;points=[[0,0.5],[1,0.5]];portConstraint=eastwest;" vertex="1" parent="f68Y0WPvlqwC1lVv3MSY-13">
          <mxGeometry y="112" width="223" height="26" as="geometry" />
        </mxCell>
        <mxCell id="f68Y0WPvlqwC1lVv3MSY-18" value="addCallback(string, function): void" style="text;strokeColor=none;fillColor=none;align=left;verticalAlign=top;spacingLeft=4;spacingRight=4;overflow=hidden;rotatable=0;points=[[0,0.5],[1,0.5]];portConstraint=eastwest;" vertex="1" parent="f68Y0WPvlqwC1lVv3MSY-13">
          <mxGeometry y="138" width="223" height="26" as="geometry" />
        </mxCell>
        <mxCell id="f68Y0WPvlqwC1lVv3MSY-19" value="removeCallback(string, function): void" style="text;strokeColor=none;fillColor=none;align=left;verticalAlign=top;spacingLeft=4;spacingRight=4;overflow=hidden;rotatable=0;points=[[0,0.5],[1,0.5]];portConstraint=eastwest;" vertex="1" parent="f68Y0WPvlqwC1lVv3MSY-13">
          <mxGeometry y="164" width="223" height="26" as="geometry" />
        </mxCell>
        <mxCell id="f68Y0WPvlqwC1lVv3MSY-40" value="1" style="endArrow=open;html=1;endSize=12;startArrow=diamondThin;startSize=14;startFill=1;edgeStyle=orthogonalEdgeStyle;align=left;verticalAlign=bottom;rounded=0;exitX=1;exitY=0.5;exitDx=0;exitDy=0;entryX=0.5;entryY=0;entryDx=0;entryDy=0;" edge="1" parent="1" source="D0WQU8Z_5N7r7djm6m5t-74" target="f68Y0WPvlqwC1lVv3MSY-13">
          <mxGeometry x="-1" y="3" relative="1" as="geometry">
            <mxPoint x="514" y="-436" as="sourcePoint" />
            <mxPoint x="435" y="-814" as="targetPoint" />
            <Array as="points">
              <mxPoint x="385" y="-779" />
              <mxPoint x="385" y="-814" />
              <mxPoint x="662" y="-814" />
            </Array>
          </mxGeometry>
        </mxCell>
        <mxCell id="f68Y0WPvlqwC1lVv3MSY-41" value="1" style="endArrow=open;html=1;endSize=12;startArrow=diamondThin;startSize=14;startFill=0;edgeStyle=orthogonalEdgeStyle;align=left;verticalAlign=bottom;rounded=0;exitX=1;exitY=0.5;exitDx=0;exitDy=0;" edge="1" parent="1" source="D0WQU8Z_5N7r7djm6m5t-73" target="D0WQU8Z_5N7r7djm6m5t-81">
          <mxGeometry x="-1" y="3" relative="1" as="geometry">
            <mxPoint x="514" y="-436" as="sourcePoint" />
            <mxPoint x="485" y="-768" as="targetPoint" />
            <Array as="points">
              <mxPoint x="387" y="-753" />
            </Array>
          </mxGeometry>
        </mxCell>
      </root>
    </mxGraphModel>
  </diagram>
</mxfile>
